<?xml version="1.0" standalone="no"?>
<!DOCTYPE svg PUBLIC "-//W3C//DTD SVG 20010904//EN"
 "http://www.w3.org/TR/2001/REC-SVG-20010904/DTD/svg10.dtd">
<svg version="1.0" xmlns="http://www.w3.org/2000/svg"
 width="128.000000pt" height="128.000000pt" viewBox="0 0 128.000000 128.000000"
 preserveAspectRatio="xMidYMid meet">

<g transform="translate(0.000000,128.000000) scale(0.100000,-0.100000)"
fill="#000000" stroke="none">
<path d="M228 1094 c-35 -19 -48 -43 -48 -92 0 -31 -5 -43 -25 -56 -14 -9 -25
-24 -25 -34 0 -10 -13 3 -31 30 -33 51 -61 67 -84 48 -23 -19 -18 -63 13 -106
37 -50 96 -102 126 -110 22 -5 23 -11 30 -111 3 -58 6 -186 6 -283 0 -123 4
-180 12 -188 15 -15 60 -16 75 -1 8 8 13 8 17 0 9 -15 59 -14 74 1 8 8 12 65
12 188 0 97 3 246 8 331 l7 154 6 -110 c4 -60 7 -209 8 -330 1 -157 4 -224 13
-233 16 -16 61 -15 76 0 10 10 15 10 21 -1 11 -17 58 -18 74 -2 8 8 14 101 18
304 4 161 7 312 8 337 1 30 4 41 11 34 7 -7 13 -133 17 -338 7 -345 8 -356 53
-356 10 0 25 6 32 14 12 11 17 11 33 0 10 -8 26 -14 36 -14 41 0 44 19 50 357
6 297 9 346 24 331 3 -3 8 -153 12 -334 3 -191 10 -334 16 -341 13 -18 52 -16
67 2 12 14 15 14 30 0 20 -18 51 -20 68 -3 8 8 12 66 12 193 0 100 3 229 6
287 7 106 7 106 35 112 83 16 201 198 143 220 -32 12 -44 5 -86 -55 -41 -59
-43 -60 -51 -35 -5 14 -16 28 -26 31 -15 4 -17 14 -13 58 4 46 1 55 -22 78
-31 31 -59 38 -103 27 -46 -12 -76 -54 -71 -100 3 -37 -8 -53 -29 -40 -5 4
-10 24 -10 45 -1 51 -25 84 -69 96 -71 20 -129 -23 -129 -96 0 -38 -3 -43 -20
-41 -16 2 -20 11 -22 47 -2 62 -37 96 -98 96 -61 0 -98 -36 -100 -97 -1 -51
-28 -62 -33 -13 -9 95 -79 140 -154 99z m302 -190 c0 -8 -19 -13 -24 -6 -3 5
1 9 9 9 8 0 15 -2 15 -3z m267 0 c-3 -3 -12 -4 -19 -1 -8 3 -5 6 6 6 11 1 17
-2 13 -5z"/>
</g>
</svg>
